<?xml version="1.0" standalone="no"?>
<!DOCTYPE svg PUBLIC "-//W3C//DTD SVG 20010904//EN"
 "http://www.w3.org/TR/2001/REC-SVG-20010904/DTD/svg10.dtd">
<svg version="1.0" xmlns="http://www.w3.org/2000/svg"
 width="500.000000pt" height="500.000000pt" viewBox="0 0 500.000000 500.000000"
 preserveAspectRatio="xMidYMid meet">

<g transform="translate(0.000000,500.000000) scale(0.100000,-0.100000)"
fill="#000000" stroke="none">
<path d="M2335 4780 c-495 -56 -905 -235 -1277 -556 -219 -190 -404 -433 -539
-709 -309 -635 -306 -1385 10 -2010 233 -459 575 -800 1026 -1020 562 -274
1194 -304 1778 -85 32 12 56 24 54 26 -3 3 -54 -6 -113 -20 -282 -65 -607 -96
-813 -77 -126 12 -311 53 -455 103 -180 61 -418 187 -559 295 -159 123 -420
405 -504 544 -57 96 -64 89 89 89 l134 0 13 37 c40 112 152 360 199 443 63
110 481 690 497 689 14 0 200 -214 278 -319 105 -141 128 -178 165 -269 33
-78 36 -95 36 -186 1 -95 -1 -103 -33 -163 -113 -208 -400 -247 -566 -77 -118
122 -119 360 -2 473 40 39 113 71 177 79 48 5 50 7 50 36 l0 29 -87 -5 c-49
-2 -111 -12 -140 -21 -216 -68 -322 -313 -225 -520 78 -167 255 -256 506 -256
129 0 199 15 302 66 255 126 370 436 264 717 -47 125 -156 250 -503 578 l-68
64 88 120 c49 66 108 135 131 154 44 35 115 61 164 61 l28 0 0 286 0 286 -247
-4 c-263 -5 -301 -11 -403 -63 -97 -50 -175 -141 -220 -260 -29 -75 -31 -199
-5 -295 26 -98 117 -275 185 -359 33 -41 60 -78 60 -83 0 -5 -136 -198 -302
-429 l-303 -421 -3 608 -2 608 24 36 c33 50 85 73 179 78 l77 5 0 28 0 29
-355 0 c-277 0 -355 3 -355 13 0 26 131 278 197 377 276 417 657 691 1158 834
177 50 329 70 530 70 201 -1 350 -20 529 -69 713 -195 1280 -788 1440 -1505
47 -213 51 -253 51 -530 0 -279 -9 -353 -63 -525 l-19 -60 5 96 c5 105 -9 172
-55 264 -53 103 -102 152 -358 350 -308 237 -324 254 -345 349 -29 132 58 266
194 296 60 13 153 -8 203 -46 69 -53 92 -120 108 -316 7 -78 7 -78 36 -78 l29
0 0 253 0 254 -107 6 c-244 15 -356 3 -470 -53 -98 -48 -178 -151 -211 -270
-8 -27 -10 3 -11 128 l-1 162 -34 0 -33 0 -5 -102 c-5 -115 -24 -166 -78 -211
-46 -40 -94 -48 -257 -45 l-148 3 0 490 0 490 124 3 c192 4 269 -33 326 -160
25 -55 29 -78 33 -180 l4 -118 34 0 34 0 0 272 0 271 -112 -6 c-62 -4 -308 -7
-545 -7 l-433 0 0 -34 c0 -33 1 -34 53 -40 65 -8 121 -39 161 -89 l31 -39 3
-1021 c2 -718 0 -1033 -8 -1060 -14 -47 -65 -106 -107 -123 -19 -8 -69 -14
-118 -14 l-85 0 0 -30 0 -30 465 0 465 0 0 30 0 30 -82 0 c-96 0 -149 20 -190
68 -53 63 -53 64 -53 662 l0 555 176 0 176 0 37 -28 c20 -16 49 -47 64 -70 25
-37 27 -51 31 -154 l3 -113 34 0 34 0 1 178 0 177 19 -53 c28 -83 86 -158 194
-251 55 -47 143 -123 195 -169 129 -110 204 -200 254 -301 39 -79 42 -90 42
-170 0 -72 -4 -95 -27 -143 -35 -76 -98 -142 -167 -175 -48 -24 -69 -28 -141
-28 -106 0 -175 24 -240 82 -107 96 -148 250 -99 378 41 110 165 205 265 205
20 0 24 5 24 30 l0 30 -68 0 c-244 0 -425 -166 -425 -390 0 -134 62 -243 181
-319 145 -92 466 -119 637 -53 93 36 196 119 253 205 14 20 27 36 29 33 10 -9
-115 -266 -194 -398 -47 -79 -87 -146 -90 -150 -2 -5 -2 -8 1 -8 2 0 38 44 78
98 434 576 571 1340 362 2029 -256 844 -965 1461 -1824 1588 -135 20 -420 28
-535 15z m-196 -1209 c140 -43 212 -137 232 -304 6 -49 8 -95 5 -103 -4 -12
-49 -14 -271 -14 l-265 0 0 -36 0 -37 48 6 c26 3 68 1 94 -5 109 -23 116 -118
16 -231 l-33 -38 -102 96 c-78 74 -109 110 -133 158 -105 215 -17 439 199 508
73 23 135 23 210 0z m-1330 -516 c40 -20 79 -70 86 -108 3 -18 4 -381 3 -807
l-3 -775 -36 76 c-90 188 -176 460 -211 669 -28 160 -30 403 -4 570 16 108 61
302 85 363 12 31 37 35 80 12z"/>
<path d="M1580 3805 l0 -35 435 0 435 0 0 35 0 35 -435 0 -435 0 0 -35z"/>
</g>
</svg>
